# xmcd CD database file
#
# Track frame offsets:
#	182
#	15025
#	43735
#	61182
#	78525
#	96132
#	110957
#	131360
#	146262
#	163002
#	175515
#	194577
#
# Disc length: 2818 seconds
#
# Revision: 4
# Processed by: cddbd v1.5.2PL0 Copyright (c) Steve Scherf et al.
# Submitted via: CDex 1.79
#
DISCID=960b000c
DTITLE=Don Edwards - West Of Yesterday
DYEAR=1996
DGENRE=Western
TTITLE0=The Habit
TTITLE1=Bad Half Hour/Annie Laurie
TTITLE2=Gypsy Davey
TTITLE3=Rose Of Old Pawnee
TTITLE4=Run Along, Little Dogies
TTITLE5=Jim, I Wore A Tie
TTITLE6=I Wanted To Die In The Desert
TTITLE7=The Freedom Song
TTITLE8=At The End Of A Long, Lonely Day
TTITLE9=Blue Bonnet Lane
TTITLE10=West Of Yesterday
TTITLE11=Texas Plains
EXTD=YEAR: 1996
EXTT0=
EXTT1=
EXTT2=
EXTT3=
EXTT4=
EXTT5=
EXTT6=
EXTT7=
EXTT8=
EXTT9=
EXTT10=
EXTT11=
PLAYORDER=
